<?xml version="1.0" encoding="UTF-8"?>
<svg id="Capa_2" data-name="Capa 2" xmlns="http://www.w3.org/2000/svg" viewBox="0 0 497.27 155.87">
  <defs>
    <style>
      .cls-1 {
        fill: #fff;
      }
    </style>
  </defs>
  <g id="Capa_1-2" data-name="Capa 1">
    <g>
      <path class="cls-1" d="M239.29,154.69h-18.65c-8.24,0-14.92-6.68-14.92-14.92h0c-6.67,9.42-18.45,16.09-33.17,16.09-25.32,0-42.4-17.47-42.4-46.71V45.17h33.37v59.47c0,14.92,8.44,23.16,21,23.16s21.2-8.24,21.2-23.16V45.17h33.56v109.52Z"/>
      <path class="cls-1" d="M311.54,155.87c-32.19,0-55.35-21.59-55.35-56.33s22.77-56.33,55.35-56.33,54.56,21.2,54.56,54.56c0,.03,0,.06,0,.09,0,5.39-4.45,9.72-9.84,9.72h-66.71c1.18,14.33,10.01,21,20.81,21,9.42,0,14.72-4.71,17.47-10.6h35.72c-5.3,21.39-24.73,37.88-52.01,37.88Zm-21.79-66.93h42c0-11.97-9.42-18.84-20.61-18.84s-19.43,6.67-21.39,18.84Z"/>
      <path class="cls-1" d="M497.06,93.79V37.51C497.06,16.8,480.27,0,459.56,0h-1.95V43.98c-.16-.06-.31-.1-.47-.16-4.58-1.46-9.4-2.35-14.4-2.61h-.01c-.97-.05-1.96-.08-2.94-.08-11.03,0-21.33,3.12-30.07,8.54-.27,.16-.54,.33-.8,.5-10.96,7.04-19.35,17.72-23.48,30.33-1.84,5.61-2.84,11.59-2.84,17.82s.99,12.21,2.84,17.82c.15,.46,.31,.92,.47,1.38v.26l.07-.05c.62,1.73,1.32,3.42,2.11,5.07,.1,.22,.2,.43,.31,.64,9.25,19.19,28.88,32.43,51.61,32.43,1.75,0,3.48-.08,5.18-.23,9.55-.86,18.43-4.06,26.05-9.03,.2,.17,.41,.34,.62,.5,6.4,5.08,14.5,8.11,23.3,8.11h1.92v-51.81c.13-1.58,.2-3.19,.2-4.81s-.07-3.22-.2-4.81Zm-74.97,4.87c0-3.11,.8-6.03,2.2-8.56-1.86,.73-3.99,1.83-6.82,3.17-10.51,4.98-16.34,9.8-16.62,9.43-.31-.41,6.36-6.65,15.28-12.58,9.59-6.38,14.75-7.74,16.17-8.09,1.26-.31,2.47-.53,3.62-.69,1.19-.26,2.42-.42,3.69-.43,.08,0,.16,0,.24,0,2.01,0,3.94,.34,5.74,.95,.05,.01,.11,.03,.16,.04h-.01c6.91,2.43,11.87,9.01,11.87,16.76,0,9.08-6.82,16.58-15.62,17.63-.7,.09-1.41,.13-2.14,.13-9.81,0-17.76-7.95-17.76-17.76Z"/>
      <path class="cls-1" d="M113.12,74.32V37.51C113.12,16.79,96.32,0,75.61,0h-1.95V43.7c-5.19-1.55-10.69-2.38-16.38-2.38C25.65,41.31,0,66.95,0,98.59s25.65,57.28,57.28,57.28c11.23,0,21.71-3.24,30.56-8.83,6.41,5.11,14.52,8.17,23.36,8.17h1.92v-30.93h.02v-49.97h-.02Zm-31.94,32.89c-9.59,6.38-14.76,7.74-16.18,8.09-1.26,.31-2.47,.53-3.62,.68-1.27,.29-2.58,.44-3.93,.44-2.01,0-3.94-.34-5.74-.95-.05-.01-.1-.03-.16-.04h.01c-6.91-2.43-11.87-9.02-11.87-16.76,0-9.81,7.95-17.76,17.76-17.76s17.76,7.95,17.76,17.76c0,3.11-.8,6.02-2.2,8.56,1.86-.73,4-1.83,6.82-3.17,10.51-4.98,24.48-19.32,24.77-18.95,.31,.41-14.51,16.17-23.41,22.1Z"/>
    </g>
  </g>
</svg>