<?xml version="1.0" encoding="UTF-8"?>
<svg id="Capa_2" data-name="Capa 2" xmlns="http://www.w3.org/2000/svg" viewBox="0 0 493 329.77">
  <defs>
    <style>
      .cls-1 {
        fill: #00afd7;
      }
    </style>
  </defs>
  <g id="Capa_1-2" data-name="Capa 1">
    <path class="cls-1" d="M492.57,198.42V79.36C492.57,35.53,457.04,0,413.21,0h-4.13V93.25c-11.74-3.79-24.26-5.85-37.27-5.85-28.57,0-54.82,9.89-75.54,26.43h0s-56.95,43.41-56.95,43.41V79.36C239.33,35.53,203.8,0,159.97,0h-4.13V92.44c-10.98-3.27-22.61-5.04-34.66-5.04C54.26,87.4,0,141.66,0,208.59s54.26,121.18,121.18,121.18c23.77,0,45.94-6.85,64.65-18.67,13.57,10.81,30.74,17.28,49.43,17.28h4.06v-65.44l18.23-13.9c16.65,47.03,61.52,80.73,114.26,80.73,24.38,0,47.08-7.21,66.09-19.6,13.74,11.37,31.37,18.21,50.6,18.21h4.06v-109.62c.28-3.35,.43-6.75,.43-10.17s-.15-6.82-.43-10.17Zm-320.83,28.37c-20.28,13.49-31.21,16.37-34.22,17.11-2.67,.66-5.22,1.13-7.66,1.45-2.68,.61-5.46,.94-8.32,.94-4.25,0-8.33-.72-12.15-2.02-.11-.03-.23-.06-.34-.09h.03c-14.63-5.15-25.12-19.08-25.12-35.46,0-20.75,16.82-37.57,37.57-37.57s37.57,16.82,37.57,37.57c0,6.57-1.69,12.74-4.65,18.12,3.94-1.55,8.45-3.87,14.43-6.7,22.24-10.53,51.79-40.88,52.39-40.1,.66,.86-30.69,34.2-49.54,46.75Zm199.77,19.49c-20.75,0-37.57-16.82-37.57-37.57,0-6.57,1.69-12.74,4.65-18.12-3.94,1.55-8.45,3.87-14.43,6.7-22.24,10.53-34.57,20.74-35.17,19.96-.66-.86,13.46-14.07,32.32-26.62,20.28-13.49,31.21-16.37,34.22-17.11,2.67-.66,5.22-1.13,7.66-1.45,2.68-.61,5.46-.94,8.32-.94,4.25,0,8.33,.72,12.15,2.02,.11,.03,.23,.06,.34,.09h-.03c14.63,5.15,25.12,19.08,25.12,35.46,0,20.75-16.82,37.57-37.57,37.57Z"/>
  </g>
</svg>